<svg version="1.1" id="Layer_1" xmlns="http://www.w3.org/2000/svg" xmlns:xlink="http://www.w3.org/1999/xlink" x="0px" y="0px"
	 width="100%" viewBox="0 0 424 424" enable-background="new 0 0 424 424" xml:space="preserve">
<path fill="#ffffff" opacity="1.000000" stroke="none" 
	d="
M245.000000,425.000000 
	C163.333344,425.000000 82.166687,425.000000 1.000022,425.000000 
	C1.000015,283.666687 1.000015,142.333389 1.000007,1.000060 
	C142.333298,1.000040 283.666595,1.000040 424.999908,1.000020 
	C424.999939,142.333267 424.999939,283.666534 424.999969,424.999908 
	C365.166656,425.000000 305.333344,425.000000 245.000000,425.000000 
M271.854828,71.591293 
	C271.259064,71.369751 270.663269,71.148209 269.643341,70.387245 
	C269.331238,70.271416 268.946777,70.235634 268.717407,70.028282 
	C256.935822,59.378407 242.746857,53.686913 227.296066,52.232464 
	C214.090317,50.989349 200.754471,51.826603 187.635483,54.939568 
	C163.115143,60.757931 141.357605,71.283844 126.420662,92.287811 
	C113.579483,110.344780 103.547089,129.796371 103.134842,152.986237 
	C100.141457,153.521744 97.038567,154.819244 94.181129,154.408646 
	C90.203110,153.837006 88.837280,155.487534 87.986580,158.751144 
	C87.591957,160.265060 87.220451,161.965271 86.279427,163.128937 
	C75.482735,176.479950 70.383598,191.995636 69.082413,208.842499 
	C68.581352,215.329880 69.000725,221.888351 69.000725,228.291931 
	C63.770016,230.464600 61.384007,233.694565 62.050415,238.026230 
	C62.790047,242.833878 65.828331,244.910202 70.670959,245.168991 
	C71.836296,245.231277 73.257385,247.143311 73.938614,248.513947 
	C77.433800,255.546234 81.365715,262.090881 89.226097,265.058319 
	C91.613731,265.959686 94.555191,266.267883 96.290718,267.875671 
	C105.096916,276.033691 115.920380,274.362671 126.098091,273.686035 
	C137.945724,272.898376 146.624634,265.756927 152.982712,255.972000 
	C163.748962,239.403015 167.731979,220.693939 168.801071,201.406357 
	C169.289185,192.600311 168.305588,183.565994 166.816681,174.835220 
	C165.066193,164.570480 161.366943,154.960693 152.170151,148.527084 
	C150.960770,147.681046 150.454239,145.422043 150.210403,143.732574 
	C150.013840,142.370667 150.570068,140.835999 151.025177,139.454697 
	C153.664932,131.442810 154.898178,122.468750 159.418533,115.696754 
	C165.590897,106.449921 174.284546,98.886253 181.896042,90.599838 
	C188.516144,83.392746 196.998520,78.927612 205.809357,75.283150 
	C209.765564,73.646729 214.584824,72.682426 218.763718,73.248680 
	C235.062363,75.457153 248.918976,82.481804 259.289825,95.734619 
	C268.110992,107.007095 274.476959,119.274765 273.900696,133.929367 
	C273.370178,147.422607 272.201324,160.904282 270.833527,174.342163 
	C270.463318,177.979492 268.934692,181.831055 266.887421,184.878723 
	C264.503815,188.427109 260.289978,190.779831 258.048462,194.384064 
	C248.733597,209.361832 244.863968,226.186386 244.178314,243.505386 
	C243.471024,261.370239 246.477066,278.602539 258.940063,292.729187 
	C265.708069,300.400665 274.118408,304.476166 284.493500,303.949341 
	C289.292450,303.705658 294.082733,303.169037 298.880890,303.114441 
	C300.114746,303.100403 301.405060,304.345764 302.598663,305.121399 
	C308.325165,308.842682 314.069366,312.540161 319.699585,316.403107 
	C320.712860,317.098267 321.946014,318.620148 321.823334,319.603943 
	C321.485199,322.315887 320.779175,325.073853 319.689697,327.584015 
	C315.383423,337.505463 307.034485,341.957306 296.874634,341.800232 
	C287.068573,341.648651 277.262878,340.028748 267.502350,338.716766 
	C252.958176,336.761719 238.680130,337.415344 226.144714,345.605011 
	C217.942474,350.963776 210.535049,357.670807 203.294312,364.341309 
	C189.503525,377.046021 180.582062,378.642456 163.563339,371.845306 
	C152.780472,367.538696 142.127075,362.914978 130.338593,361.913177 
	C123.637444,361.343750 116.941391,360.583405 110.288864,359.599304 
	C95.012398,357.339447 81.394630,360.449127 70.610672,372.033173 
	C67.090210,375.814789 63.802036,380.094299 63.463345,385.719818 
	C66.172096,383.486908 68.584877,381.091492 70.774330,378.506866 
	C75.808678,372.563904 82.267342,368.993011 89.660484,367.014313 
	C100.393227,364.141754 110.961227,367.324371 121.510666,368.413696 
	C136.114807,369.921722 149.547165,375.701141 162.984604,381.383606 
	C175.026535,386.475952 187.571564,387.392273 198.828033,379.821320 
	C206.429916,374.708435 213.075256,368.066010 219.725830,361.668427 
	C233.475464,348.441803 250.178833,345.164093 268.215576,347.291016 
	C279.138214,348.579041 289.820190,350.807800 300.994965,349.139465 
	C312.415588,347.434448 323.015533,339.340027 325.791565,328.253662 
	C327.601715,321.024780 328.068268,313.614594 324.181396,306.830353 
	C322.323608,303.587708 319.746857,300.726593 317.293915,297.865723 
	C315.619171,295.912445 315.543030,294.581940 317.771362,293.026215 
	C324.129150,288.587494 328.554169,282.536499 332.093933,275.706055 
	C339.777740,260.879120 342.451324,245.154022 342.131653,228.516266 
	C341.740967,208.180466 335.583679,191.246109 318.420135,181.091629 
	C318.976929,174.655014 320.209869,168.953064 319.781097,163.378922 
	C319.117950,154.757690 317.764801,146.126373 315.915100,137.671982 
	C311.229919,116.257629 304.943573,95.471878 286.562500,81.218552 
	C282.042938,77.713913 276.702728,75.267586 271.768799,72.292503 
	C271.768799,72.292503 271.807281,72.258148 271.854828,71.591293 
M38.891308,314.667023 
	C37.494095,306.244568 42.523796,299.587616 50.685719,300.119751 
	C59.607082,300.701355 65.114380,296.594666 68.462837,288.976013 
	C71.910309,281.132050 76.474815,274.277466 83.629517,268.876038 
	C81.328415,268.779510 79.167358,269.126617 77.420998,270.168671 
	C70.511589,274.291504 65.904091,280.475800 63.094250,287.874420 
	C60.593964,294.457977 56.914444,297.676453 49.163490,297.230865 
	C39.248192,296.660797 30.756495,306.522827 32.172577,315.920807 
	C32.446301,317.737457 34.766304,320.516998 36.276989,320.607574 
	C39.289673,320.788239 39.877529,318.153076 38.891308,314.667023 
M80.076332,93.328247 
	C78.691826,90.544205 77.905823,86.021652 73.504631,88.467766 
	C69.659637,90.604774 72.958046,93.824364 74.120430,96.169899 
	C79.279793,106.580765 84.800255,116.812454 89.981277,127.212975 
	C91.262215,129.784363 93.118958,130.961182 95.273354,129.577866 
	C96.171509,129.001175 96.270508,125.801254 95.576584,124.345184 
	C90.713837,114.141670 85.548721,104.082253 80.076332,93.328247 
M375.369415,173.912079 
	C381.969818,168.967285 388.570190,164.022491 395.170563,159.077698 
	C394.972260,158.487396 394.773926,157.897079 394.575623,157.306778 
	C392.717621,157.686020 390.467133,157.519287 389.062469,158.529099 
	C375.271301,168.443527 361.602966,178.529587 347.966370,188.656647 
	C346.930115,189.426178 346.402832,190.881027 345.638977,192.017334 
	C346.057404,192.511169 346.475830,193.005020 346.894257,193.498871 
	C357.344971,188.884796 365.425385,180.581726 375.369415,173.912079 
M368.440277,338.140015 
	C371.910095,336.263153 368.592010,335.220825 367.760742,334.368408 
	C360.514893,326.937958 353.004791,319.761810 345.861450,312.236420 
	C342.844849,309.058411 340.759918,309.863037 338.069092,312.818268 
	C346.449768,321.118317 354.646210,329.364410 363.049225,337.394348 
	C364.090240,338.389160 366.229462,338.234772 368.440277,338.140015 
M39.850750,168.252670 
	C35.038803,176.822510 41.124985,182.873184 49.492599,185.718628 
	C56.607265,188.138016 59.570591,187.409866 60.770519,183.351456 
	C60.120583,183.235046 59.495003,183.094360 58.861767,183.013824 
	C47.388985,181.554642 45.299904,179.177185 46.017223,167.977722 
	C46.251369,164.321960 43.802032,163.159561 41.152695,163.139526 
	C37.773659,163.113968 34.358162,163.863571 31.024178,164.583649 
	C30.116261,164.779755 29.444839,166.070831 28.089458,167.441132 
	C32.711491,167.441132 36.213585,167.441132 39.850750,168.252670 
M112.997131,301.349274 
	C113.428307,297.182556 113.859482,293.015839 114.289291,288.862366 
	C109.982361,287.705933 108.591866,288.187561 108.076065,292.195129 
	C107.113899,299.670654 106.655998,307.211487 106.005890,314.726654 
	C105.767174,317.486145 106.557838,319.425873 109.835815,318.919281 
	C112.791328,318.462494 113.134476,316.492706 112.967346,313.842682 
	C112.724869,309.998047 112.954201,306.123657 112.997131,301.349274 
M373.081329,251.453262 
	C378.249725,248.040878 383.325165,244.764633 389.864258,248.728683 
	C390.826202,249.311813 393.122772,247.693298 395.400726,246.879486 
	C385.330322,238.657776 369.869263,245.408417 362.332672,256.521790 
	C364.714264,256.322632 366.416962,256.623779 367.605103,255.978073 
	C369.439819,254.980957 370.922485,253.336090 373.081329,251.453262 
M162.823441,346.612732 
	C163.466278,344.251556 164.798462,341.784760 164.459778,339.573944 
	C164.291595,338.476227 160.883514,336.942566 159.251648,337.250671 
	C157.441147,337.592499 155.337708,339.506805 154.509659,341.274200 
	C152.814743,344.891907 155.794373,347.020355 162.823441,346.612732 
z"/>
<path fill="#34C94B" opacity="1.000000" stroke="none" 
	d="
M271.739777,72.334724 
	C276.702728,75.267586 282.042938,77.713913 286.562500,81.218552 
	C304.943573,95.471878 311.229919,116.257629 315.915100,137.671982 
	C317.764801,146.126373 319.117950,154.757690 319.781097,163.378922 
	C320.209869,168.953064 318.976929,174.655014 318.420135,181.091629 
	C335.583679,191.246109 341.740967,208.180466 342.131653,228.516266 
	C342.451324,245.154022 339.777740,260.879120 332.093933,275.706055 
	C328.554169,282.536499 324.129150,288.587494 317.771362,293.026215 
	C315.543030,294.581940 315.619171,295.912445 317.293915,297.865723 
	C319.746857,300.726593 322.323608,303.587708 324.181396,306.830353 
	C328.068268,313.614594 327.601715,321.024780 325.791565,328.253662 
	C323.015533,339.340027 312.415588,347.434448 300.994965,349.139465 
	C289.820190,350.807800 279.138214,348.579041 268.215576,347.291016 
	C250.178833,345.164093 233.475464,348.441803 219.725830,361.668427 
	C213.075256,368.066010 206.429916,374.708435 198.828033,379.821320 
	C187.571564,387.392273 175.026535,386.475952 162.984604,381.383606 
	C149.547165,375.701141 136.114807,369.921722 121.510666,368.413696 
	C110.961227,367.324371 100.393227,364.141754 89.660484,367.014313 
	C82.267342,368.993011 75.808678,372.563904 70.774330,378.506866 
	C68.584877,381.091492 66.172096,383.486908 63.463345,385.719818 
	C63.802036,380.094299 67.090210,375.814789 70.610672,372.033173 
	C81.394630,360.449127 95.012398,357.339447 110.288864,359.599304 
	C116.941391,360.583405 123.637444,361.343750 130.338593,361.913177 
	C142.127075,362.914978 152.780472,367.538696 163.563339,371.845306 
	C180.582062,378.642456 189.503525,377.046021 203.294312,364.341309 
	C210.535049,357.670807 217.942474,350.963776 226.144714,345.605011 
	C238.680130,337.415344 252.958176,336.761719 267.502350,338.716766 
	C277.262878,340.028748 287.068573,341.648651 296.874634,341.800232 
	C307.034485,341.957306 315.383423,337.505463 319.689697,327.584015 
	C320.779175,325.073853 321.485199,322.315887 321.823334,319.603943 
	C321.946014,318.620148 320.712860,317.098267 319.699585,316.403107 
	C314.069366,312.540161 308.325165,308.842682 302.598663,305.121399 
	C301.405060,304.345764 300.114746,303.100403 298.880890,303.114441 
	C294.082733,303.169037 289.292450,303.705658 284.493500,303.949341 
	C274.118408,304.476166 265.708069,300.400665 258.940063,292.729187 
	C246.477066,278.602539 243.471024,261.370239 244.178314,243.505386 
	C244.863968,226.186386 248.733597,209.361832 258.048462,194.384064 
	C260.289978,190.779831 264.503815,188.427109 266.887421,184.878723 
	C268.934692,181.831055 270.463318,177.979492 270.833527,174.342163 
	C272.201324,160.904282 273.370178,147.422607 273.900696,133.929367 
	C274.476959,119.274765 268.110992,107.007095 259.289825,95.734619 
	C248.918976,82.481804 235.062363,75.457153 218.763718,73.248680 
	C214.584824,72.682426 209.765564,73.646729 205.809357,75.283150 
	C196.998520,78.927612 188.516144,83.392746 181.896042,90.599838 
	C174.284546,98.886253 165.590897,106.449921 159.418533,115.696754 
	C154.898178,122.468750 153.664932,131.442810 151.025177,139.454697 
	C150.570068,140.835999 150.013840,142.370667 150.210403,143.732574 
	C150.454239,145.422043 150.960770,147.681046 152.170151,148.527084 
	C161.366943,154.960693 165.066193,164.570480 166.816681,174.835220 
	C168.305588,183.565994 169.289185,192.600311 168.801071,201.406357 
	C167.731979,220.693939 163.748962,239.403015 152.982712,255.972000 
	C146.624634,265.756927 137.945724,272.898376 126.098091,273.686035 
	C115.920380,274.362671 105.096916,276.033691 96.290718,267.875671 
	C94.555191,266.267883 91.613731,265.959686 89.226097,265.058319 
	C81.365715,262.090881 77.433800,255.546234 73.938614,248.513947 
	C73.257385,247.143311 71.836296,245.231277 70.670959,245.168991 
	C65.828331,244.910202 62.790047,242.833878 62.050415,238.026230 
	C61.384007,233.694565 63.770016,230.464600 69.000725,228.291931 
	C69.000725,221.888351 68.581352,215.329880 69.082413,208.842499 
	C70.383598,191.995636 75.482735,176.479950 86.279427,163.128937 
	C87.220451,161.965271 87.591957,160.265060 87.986580,158.751144 
	C88.837280,155.487534 90.203110,153.837006 94.181129,154.408646 
	C97.038567,154.819244 100.141457,153.521744 103.969162,153.055161 
	C106.745384,153.190247 108.838547,152.811325 110.599525,153.409821 
	C115.071014,154.929520 116.173882,152.790253 116.466843,148.778656 
	C121.147614,134.153351 126.126785,119.978424 134.002777,107.002457 
	C140.108185,96.943565 146.766022,87.147125 157.080414,81.090485 
	C179.948349,67.662361 204.599182,64.943428 230.266068,70.680557 
	C251.350754,75.393471 265.545166,88.878304 274.735535,107.685074 
	C283.620361,125.866623 281.243622,145.124863 278.389923,164.261917 
	C277.480072,170.363647 276.780060,176.496643 275.942749,182.932663 
	C277.637085,182.932663 278.775665,182.932663 280.198944,183.199112 
	C283.595886,183.716385 283.349487,185.853836 282.610321,188.014160 
	C280.012390,187.969345 277.838501,187.798401 275.688782,187.956390 
	C274.585754,188.037460 272.974243,188.390381 272.534332,189.159302 
	C269.211731,194.966782 265.593231,200.690460 263.063507,206.849548 
	C256.237915,223.467621 254.003906,240.876389 257.195892,258.562225 
	C258.498413,265.778961 261.919922,272.613312 264.540100,279.869598 
	C264.967957,280.645020 265.233154,281.172424 265.498322,281.699829 
	C265.698059,281.632111 265.897797,281.564392 266.097534,281.496643 
	C265.759888,280.640686 265.422272,279.784729 265.048981,278.527740 
	C256.428558,245.167099 261.423706,214.915207 283.349182,187.891907 
	C287.426544,186.653503 291.236298,185.603714 292.532288,180.971893 
	C296.147980,179.973145 299.374298,178.261246 302.640961,178.180466 
	C306.909912,178.074936 308.282806,176.312943 307.985413,172.534622 
	C307.367493,164.683762 307.621185,156.608749 305.791748,149.042938 
	C302.534882,135.573685 297.997131,122.414131 293.657288,108.938416 
	C289.156250,100.247482 285.303711,91.569847 280.697174,83.312836 
	C278.431519,79.251709 274.769745,75.969444 271.739777,72.334724 
M123.164848,154.226089 
	C127.047012,151.732071 130.929184,149.238052 134.936203,146.663834 
	C132.237000,143.514893 129.494781,140.315765 126.244270,136.523666 
	C124.653152,142.920700 123.284073,148.425064 121.392685,154.184784 
	C121.350647,154.622498 121.308617,155.060226 121.266579,155.497940 
	C121.714722,155.207214 122.162865,154.916489 123.164848,154.226089 
M115.395119,253.868683 
	C117.378853,256.860840 119.027916,260.157043 121.414093,262.783569 
	C126.834869,268.750427 131.056458,268.903137 136.404984,262.991486 
	C150.391830,247.532028 154.825607,228.240707 156.811600,208.351334 
	C157.624924,200.206146 157.253311,191.678665 155.745621,183.639252 
	C154.210556,175.454056 151.818329,166.940689 147.617645,159.868042 
	C142.363754,151.022156 136.094101,149.367218 128.211594,159.663895 
	C115.841080,175.823074 111.759727,195.030655 110.100960,214.761856 
	C109.003578,227.815247 110.883804,240.683716 115.395119,253.868683 
M277.013519,261.093597 
	C276.982605,247.415756 276.329590,233.735092 280.923523,220.436249 
	C286.518463,204.239685 293.369385,189.278870 311.541138,183.407364 
	C304.728821,180.177505 302.372650,180.228165 296.037354,183.454987 
	C287.360474,187.874512 282.278809,195.593079 278.126892,203.830627 
	C270.192688,219.572510 267.042450,236.301147 267.850128,254.025269 
	C268.462616,267.465973 271.223846,279.900238 278.989563,291.054810 
	C284.113464,298.414703 294.054565,301.644867 300.783569,297.915680 
	C288.593109,292.769440 285.598480,288.080414 280.764008,276.176666 
	C278.943115,271.693237 278.270782,266.743317 277.013519,261.093597 
M98.096893,217.881439 
	C98.422417,214.611237 98.490173,211.290787 99.116501,208.079239 
	C102.471878,190.874161 106.315201,173.827942 117.889091,159.282135 
	C113.318146,158.642212 108.961884,155.899384 105.632286,160.929779 
	C103.015427,164.883362 100.093750,168.721939 98.091499,172.980240 
	C90.318008,189.512543 86.726357,206.818756 87.836021,225.261063 
	C88.543427,237.017776 91.149223,247.972687 97.095543,258.017639 
	C100.128548,263.141174 104.059128,267.675049 111.111351,268.895325 
	C109.231697,266.070129 107.484718,263.866516 106.187317,261.424103 
	C99.096428,248.075226 98.167183,233.512985 98.096893,217.881439 
M302.640381,285.922913 
	C314.821777,287.532867 322.054291,280.413452 327.549744,271.128174 
	C335.494110,257.705231 338.064972,242.913040 337.264130,227.448639 
	C336.828949,219.045364 335.505707,210.842636 330.860718,203.634003 
	C325.287445,194.984833 316.412567,192.806580 308.101868,198.818207 
	C303.392548,202.224716 298.914459,206.713120 295.994629,211.689621 
	C286.909943,227.173431 284.632629,244.252411 287.253723,261.830200 
	C288.716858,271.642273 291.404968,281.227997 302.640381,285.922913 
z"/>
<path fill="#FFFFFF" opacity="1.000000" stroke="none" 
	d="
M292.160858,180.984253 
	C291.236298,185.603714 287.426544,186.653503 283.351257,187.916870 
	C282.994446,188.017410 283.044373,188.024261 283.044373,188.024261 
	C283.349487,185.853836 283.595886,183.716385 280.238708,182.782471 
	C280.995453,175.876999 282.490692,169.686157 282.890717,163.425308 
	C283.607697,152.202988 284.061859,140.930984 283.846100,129.694702 
	C283.722931,123.281326 282.512634,116.787827 280.997589,110.522461 
	C277.448669,95.846405 269.277771,84.106857 257.368408,74.797646 
	C245.672440,65.655273 232.628693,60.593536 217.742065,59.942867 
	C206.337173,59.444389 195.215881,61.016251 184.351120,64.090744 
	C170.140884,68.111931 156.810257,73.784996 145.891953,84.436012 
	C134.726746,95.327881 126.900879,108.261795 121.356636,122.530006 
	C118.106789,130.893555 114.901001,139.582428 116.158409,148.976959 
	C116.173882,152.790253 115.071014,154.929520 110.599525,153.409821 
	C108.838547,152.811325 106.745384,153.190247 104.372261,153.025711 
	C103.547089,129.796371 113.579483,110.344780 126.420662,92.287811 
	C141.357605,71.283844 163.115143,60.757931 187.635483,54.939568 
	C200.754471,51.826603 214.090317,50.989349 227.296066,52.232464 
	C242.746857,53.686913 256.935822,59.378407 268.717407,70.028282 
	C268.946777,70.235634 269.331238,70.271416 269.927246,70.973572 
	C270.743225,71.792648 271.275238,72.025398 271.807281,72.258148 
	C271.807281,72.258148 271.768799,72.292503 271.754272,72.313614 
	C274.769745,75.969444 278.431519,79.251709 280.697174,83.312836 
	C285.303711,91.569847 289.156250,100.247482 293.659882,109.369629 
	C294.667053,120.752365 295.496674,131.510864 295.919098,142.285324 
	C296.084106,146.493500 295.415894,150.745972 294.983551,154.963547 
	C294.093842,163.642365 293.107452,172.311264 292.160858,180.984253 
z"/>
<path fill="#34C94A" opacity="1.000000" stroke="none" 
	d="
M38.935425,315.052490 
	C39.877529,318.153076 39.289673,320.788239 36.276989,320.607574 
	C34.766304,320.516998 32.446301,317.737457 32.172577,315.920807 
	C30.756495,306.522827 39.248192,296.660797 49.163490,297.230865 
	C56.914444,297.676453 60.593964,294.457977 63.094250,287.874420 
	C65.904091,280.475800 70.511589,274.291504 77.420998,270.168671 
	C79.167358,269.126617 81.328415,268.779510 83.629517,268.876038 
	C76.474815,274.277466 71.910309,281.132050 68.462837,288.976013 
	C65.114380,296.594666 59.607082,300.701355 50.685719,300.119751 
	C42.523796,299.587616 37.494095,306.244568 38.935425,315.052490 
z"/>
<path fill="#34C94B" opacity="1.000000" stroke="none" 
	d="
M80.278336,93.652496 
	C85.548721,104.082253 90.713837,114.141670 95.576584,124.345184 
	C96.270508,125.801254 96.171509,129.001175 95.273354,129.577866 
	C93.118958,130.961182 91.262215,129.784363 89.981277,127.212975 
	C84.800255,116.812454 79.279793,106.580765 74.120430,96.169899 
	C72.958046,93.824364 69.659637,90.604774 73.504631,88.467766 
	C77.905823,86.021652 78.691826,90.544205 80.278336,93.652496 
z"/>
<path fill="#34C94A" opacity="1.000000" stroke="none" 
	d="
M375.016510,173.996338 
	C365.425385,180.581726 357.344971,188.884796 346.894257,193.498871 
	C346.475830,193.005020 346.057404,192.511169 345.638977,192.017334 
	C346.402832,190.881027 346.930115,189.426178 347.966370,188.656647 
	C361.602966,178.529587 375.271301,168.443527 389.062469,158.529099 
	C390.467133,157.519287 392.717621,157.686020 394.575623,157.306778 
	C394.773926,157.897079 394.972260,158.487396 395.170563,159.077698 
	C388.570190,164.022491 381.969818,168.967285 375.016510,173.996338 
z"/>
<path fill="#34C94B" opacity="1.000000" stroke="none" 
	d="
M368.150024,338.376465 
	C366.229462,338.234772 364.090240,338.389160 363.049225,337.394348 
	C354.646210,329.364410 346.449768,321.118317 338.069092,312.818268 
	C340.759918,309.863037 342.844849,309.058411 345.861450,312.236420 
	C353.004791,319.761810 360.514893,326.937958 367.760742,334.368408 
	C368.592010,335.220825 371.910095,336.263153 368.150024,338.376465 
z"/>
<path fill="#34C94B" opacity="1.000000" stroke="none" 
	d="
M39.783211,167.846893 
	C36.213585,167.441132 32.711491,167.441132 28.089458,167.441132 
	C29.444839,166.070831 30.116261,164.779755 31.024178,164.583649 
	C34.358162,163.863571 37.773659,163.113968 41.152695,163.139526 
	C43.802032,163.159561 46.251369,164.321960 46.017223,167.977722 
	C45.299904,179.177185 47.388985,181.554642 58.861767,183.013824 
	C59.495003,183.094360 60.120583,183.235046 60.770519,183.351456 
	C59.570591,187.409866 56.607265,188.138016 49.492599,185.718628 
	C41.124985,182.873184 35.038803,176.822510 39.783211,167.846893 
z"/>
<path fill="#34C94B" opacity="1.000000" stroke="none" 
	d="
M112.989716,301.805603 
	C112.954201,306.123657 112.724869,309.998047 112.967346,313.842682 
	C113.134476,316.492706 112.791328,318.462494 109.835815,318.919281 
	C106.557838,319.425873 105.767174,317.486145 106.005890,314.726654 
	C106.655998,307.211487 107.113899,299.670654 108.076065,292.195129 
	C108.591866,288.187561 109.982361,287.705933 114.289291,288.862366 
	C113.859482,293.015839 113.428307,297.182556 112.989716,301.805603 
z"/>
<path fill="#34C94A" opacity="1.000000" stroke="none" 
	d="
M372.817902,251.709595 
	C370.922485,253.336090 369.439819,254.980957 367.605103,255.978073 
	C366.416962,256.623779 364.714264,256.322632 362.332672,256.521790 
	C369.869263,245.408417 385.330322,238.657776 395.400726,246.879486 
	C393.122772,247.693298 390.826202,249.311813 389.864258,248.728683 
	C383.325165,244.764633 378.249725,248.040878 372.817902,251.709595 
z"/>
<path fill="#34C94B" opacity="1.000000" stroke="none" 
	d="
M162.439636,346.767395 
	C155.794373,347.020355 152.814743,344.891907 154.509659,341.274200 
	C155.337708,339.506805 157.441147,337.592499 159.251648,337.250671 
	C160.883514,336.942566 164.291595,338.476227 164.459778,339.573944 
	C164.798462,341.784760 163.466278,344.251556 162.439636,346.767395 
z"/>
<path fill="#34C94B" opacity="1.000000" stroke="none" 
	d="
M271.831055,71.924721 
	C271.275238,72.025398 270.743225,71.792648 270.139343,71.243286 
	C270.663269,71.148209 271.259064,71.369751 271.831055,71.924721 
z"/>
<path fill="#000000" opacity="1.000000" stroke="none" 
	d="
M116.466843,148.778656 
	C114.901001,139.582428 118.106789,130.893555 121.356636,122.530006 
	C126.900879,108.261795 134.726746,95.327881 145.891953,84.436012 
	C156.810257,73.784996 170.140884,68.111931 184.351120,64.090744 
	C195.215881,61.016251 206.337173,59.444389 217.742065,59.942867 
	C232.628693,60.593536 245.672440,65.655273 257.368408,74.797646 
	C269.277771,84.106857 277.448669,95.846405 280.997589,110.522461 
	C282.512634,116.787827 283.722931,123.281326 283.846100,129.694702 
	C284.061859,140.930984 283.607697,152.202988 282.890717,163.425308 
	C282.490692,169.686157 280.995453,175.876999 279.954010,182.516022 
	C278.775665,182.932663 277.637085,182.932663 275.942749,182.932663 
	C276.780060,176.496643 277.480072,170.363647 278.389923,164.261917 
	C281.243622,145.124863 283.620361,125.866623 274.735535,107.685074 
	C265.545166,88.878304 251.350754,75.393471 230.266068,70.680557 
	C204.599182,64.943428 179.948349,67.662361 157.080414,81.090485 
	C146.766022,87.147125 140.108185,96.943565 134.002777,107.002457 
	C126.126785,119.978424 121.147614,134.153351 116.466843,148.778656 
z"/>
<path fill="#000000" opacity="1.000000" stroke="none" 
	d="
M115.233597,253.511383 
	C110.883804,240.683716 109.003578,227.815247 110.100960,214.761856 
	C111.759727,195.030655 115.841080,175.823074 128.211594,159.663895 
	C136.094101,149.367218 142.363754,151.022156 147.617645,159.868042 
	C151.818329,166.940689 154.210556,175.454056 155.745621,183.639252 
	C157.253311,191.678665 157.624924,200.206146 156.811600,208.351334 
	C154.825607,228.240707 150.391830,247.532028 136.404984,262.991486 
	C131.056458,268.903137 126.834869,268.750427 121.414093,262.783569 
	C119.027916,260.157043 117.378853,256.860840 115.233597,253.511383 
M119.094971,191.786346 
	C118.341049,196.642059 117.198326,201.475327 116.916229,206.358292 
	C116.371887,215.780533 115.716553,225.266983 116.284943,234.655518 
	C116.608994,240.008057 118.759583,245.442490 120.988747,250.437973 
	C123.709984,256.536194 129.231018,258.178558 134.246185,253.860779 
	C138.267975,250.398224 141.923019,245.600555 143.713882,240.660568 
	C146.690735,232.448959 148.373856,223.710678 150.001328,215.080963 
	C152.486603,201.902603 152.164856,188.642838 148.874161,175.634216 
	C147.597763,170.588364 145.555634,164.984344 139.350983,164.316086 
	C133.992981,163.738983 129.640076,167.234375 127.330666,171.640503 
	C124.107864,177.789291 122.036652,184.541641 119.094971,191.786346 
z"/>
<path fill="#000000" opacity="1.000000" stroke="none" 
	d="
M277.044189,261.549835 
	C278.270782,266.743317 278.943115,271.693237 280.764008,276.176666 
	C285.598480,288.080414 288.593109,292.769440 300.783569,297.915680 
	C294.054565,301.644867 284.113464,298.414703 278.989563,291.054810 
	C271.223846,279.900238 268.462616,267.465973 267.850128,254.025269 
	C267.042450,236.301147 270.192688,219.572510 278.126892,203.830627 
	C282.278809,195.593079 287.360474,187.874512 296.037354,183.454987 
	C302.372650,180.228165 304.728821,180.177505 311.541138,183.407364 
	C293.369385,189.278870 286.518463,204.239685 280.923523,220.436249 
	C276.329590,233.735092 276.982605,247.415756 277.044189,261.549835 
z"/>
<path fill="#000000" opacity="1.000000" stroke="none" 
	d="
M98.057800,218.348068 
	C98.167183,233.512985 99.096428,248.075226 106.187317,261.424103 
	C107.484718,263.866516 109.231697,266.070129 111.111351,268.895325 
	C104.059128,267.675049 100.128548,263.141174 97.095543,258.017639 
	C91.149223,247.972687 88.543427,237.017776 87.836021,225.261063 
	C86.726357,206.818756 90.318008,189.512543 98.091499,172.980240 
	C100.093750,168.721939 103.015427,164.883362 105.632286,160.929779 
	C108.961884,155.899384 113.318146,158.642212 117.889091,159.282135 
	C106.315201,173.827942 102.471878,190.874161 99.116501,208.079239 
	C98.490173,211.290787 98.422417,214.611237 98.057800,218.348068 
z"/>
<path fill="#F3FCF4" opacity="1.000000" stroke="none" 
	d="
M302.271301,285.838135 
	C291.404968,281.227997 288.716858,271.642273 287.253723,261.830200 
	C284.632629,244.252411 286.909943,227.173431 295.994629,211.689621 
	C298.914459,206.713120 303.392548,202.224716 308.101868,198.818207 
	C316.412567,192.806580 325.287445,194.984833 330.860718,203.634003 
	C335.505707,210.842636 336.828949,219.045364 337.264130,227.448639 
	C338.064972,242.913040 335.494110,257.705231 327.549744,271.128174 
	C322.054291,280.413452 314.821777,287.532867 302.271301,285.838135 
M326.715698,207.961151 
	C326.053741,206.809860 325.450012,205.620193 324.720581,204.513367 
	C319.103851,195.990494 313.686676,195.440903 306.690460,202.821533 
	C304.879272,204.732269 303.183746,206.866440 301.920410,209.164749 
	C291.691315,227.774078 289.176849,247.532562 294.664673,267.946533 
	C296.001556,272.919556 299.552032,277.725952 303.208130,281.528900 
	C307.016327,285.490021 311.452148,285.133850 314.979523,280.806305 
	C319.213165,275.612274 323.406799,269.991547 325.914520,263.859100 
	C333.319855,245.749893 334.972961,227.215714 326.715698,207.961151 
z"/>
<path fill="#000000" opacity="1.000000" stroke="none" 
	d="
M292.532288,180.971893 
	C293.107452,172.311264 294.093842,163.642365 294.983551,154.963547 
	C295.415894,150.745972 296.084106,146.493500 295.919098,142.285324 
	C295.496674,131.510864 294.667053,120.752365 293.997681,109.556274 
	C297.997131,122.414131 302.534882,135.573685 305.791748,149.042938 
	C307.621185,156.608749 307.367493,164.683762 307.985413,172.534622 
	C308.282806,176.312943 306.909912,178.074936 302.640961,178.180466 
	C299.374298,178.261246 296.147980,179.973145 292.532288,180.971893 
z"/>
<path fill="#000000" opacity="1.000000" stroke="none" 
	d="
M282.992371,187.992462 
	C261.423706,214.915207 256.428558,245.167099 264.860077,278.688599 
	C264.706848,279.250519 264.377411,279.621613 264.377411,279.621613 
	C261.919922,272.613312 258.498413,265.778961 257.195892,258.562225 
	C254.003906,240.876389 256.237915,223.467621 263.063507,206.849548 
	C265.593231,200.690460 269.211731,194.966782 272.534332,189.159302 
	C272.974243,188.390381 274.585754,188.037460 275.688782,187.956390 
	C277.838501,187.798401 280.012390,187.969345 282.610321,188.014160 
	C283.044373,188.024261 282.994446,188.017410 282.992371,187.992462 
z"/>
<path fill="#000000" opacity="1.000000" stroke="none" 
	d="
M121.914986,153.929413 
	C123.284073,148.425064 124.653152,142.920700 126.244270,136.523666 
	C129.494781,140.315765 132.237000,143.514893 134.936203,146.663834 
	C130.929184,149.238052 127.047012,151.732071 122.726929,154.238846 
	C122.289009,154.251602 121.914986,153.929413 121.914986,153.929413 
z"/>
<path fill="#000000" opacity="1.000000" stroke="none" 
	d="
M264.895752,279.089661 
	C265.422272,279.784729 265.759888,280.640686 266.097534,281.496643 
	C265.897797,281.564392 265.698059,281.632111 265.498322,281.699829 
	C265.233154,281.172424 264.967957,280.645020 264.540100,279.869598 
	C264.377411,279.621613 264.706848,279.250519 264.895752,279.089661 
z"/>
<path fill="#000000" opacity="1.000000" stroke="none" 
	d="
M122.450012,154.438690 
	C122.162865,154.916489 121.714722,155.207214 121.266579,155.497940 
	C121.308617,155.060226 121.350647,154.622498 121.653839,154.057098 
	C121.914986,153.929413 122.289009,154.251602 122.450012,154.438690 
z"/>
<path fill="#34C94B" opacity="1.000000" stroke="none" 
	d="
M119.283806,191.411041 
	C122.036652,184.541641 124.107864,177.789291 127.330666,171.640503 
	C129.640076,167.234375 133.992981,163.738983 139.350983,164.316086 
	C145.555634,164.984344 147.597763,170.588364 148.874161,175.634216 
	C152.164856,188.642838 152.486603,201.902603 150.001328,215.080963 
	C148.373856,223.710678 146.690735,232.448959 143.713882,240.660568 
	C141.923019,245.600555 138.267975,250.398224 134.246185,253.860779 
	C129.231018,258.178558 123.709984,256.536194 120.988747,250.437973 
	C118.759583,245.442490 116.608994,240.008057 116.284943,234.655518 
	C115.716553,225.266983 116.371887,215.780533 116.916229,206.358292 
	C117.198326,201.475327 118.341049,196.642059 119.283806,191.411041 
z"/>
<path fill="#35C94C" opacity="1.000000" stroke="none" 
	d="
M326.865234,208.306030 
	C334.972961,227.215714 333.319855,245.749893 325.914520,263.859100 
	C323.406799,269.991547 319.213165,275.612274 314.979523,280.806305 
	C311.452148,285.133850 307.016327,285.490021 303.208130,281.528900 
	C299.552032,277.725952 296.001556,272.919556 294.664673,267.946533 
	C289.176849,247.532562 291.691315,227.774078 301.920410,209.164749 
	C303.183746,206.866440 304.879272,204.732269 306.690460,202.821533 
	C313.686676,195.440903 319.103851,195.990494 324.720581,204.513367 
	C325.450012,205.620193 326.053741,206.809860 326.865234,208.306030 
z"/>
</svg>